PathFileType	4	(X/Y/Z)	s01c0102.trc
DataRate	CameraRate	NumFrames	NumMarkers	Units	OrigDataRate	OrigDataStartFrame	OrigNumFrames
200	200	4	48	mm	200	0	2000
Frame#	Time	racr			lacr			c7			jug			rlel			rdr			llel			ldr			s2			lic			ric			lasi			rasi			rpsi			lpsi			rgt			lgt			rth1			rth2			rth3			rth4			rlfc			rsh1			rsh2			rsh3			rsh4			rlmal			rmmal			rcal			rtoe			rmt5			lth1			lth2			lth4			lth3			llfc			lsh1			lsh2			lsh3			lsh4			llmal			lmmal			lcal			ltoe			lmt5			SBIKE			LBIKE			RBIKE			
		X1	Y1	Z1	X2	Y2	Z2	X3	Y3	Z3	X4	Y4	Z4	X5	Y5	Z5	X6	Y6	Z6	X7	Y7	Z7	X8	Y8	Z8	X9	Y9	Z9	X10	Y10	Z10	X11	Y11	Z11	X12	Y12	Z12	X13	Y13	Z13	X14	Y14	Z14	X15	Y15	Z15	X16	Y16	Z16	X17	Y17	Z17	X18	Y18	Z18	X19	Y19	Z19	X20	Y20	Z20	X21	Y21	Z21	X22	Y22	Z22	X23	Y23	Z23	X24	Y24	Z24	X25	Y25	Z25	X26	Y26	Z26	X27	Y27	Z27	X28	Y28	Z28	X29	Y29	Z29	X30	Y30	Z30	X31	Y31	Z31	X32	Y32	Z32	X33	Y33	Z33	X34	Y34	Z34	X35	Y35	Z35	X36	Y36	Z36	X37	Y37	Z37	X38	Y38	Z38	X39	Y39	Z39	X40	Y40	Z40	X41	Y41	Z41	X42	Y42	Z42	X43	Y43	Z43	X44	Y44	Z44	X45	Y45	Z45	X46	Y46	Z46	X47	Y47	Z47	X48	Y48	Z48	
0	0.0000	494.064697	1327.647095	-125.479759	494.817963	1338.187256	-423.944916	0.000000	0.000000	-0.000000	0.000000	0.000000	-0.000000	575.707825	1065.948608	-30.479301	736.520630	861.409790	-67.792137	592.368164	1072.073975	-475.799530	0.000000	0.000000	-0.000000	-74.663292	1153.284790	-244.169724	125.635178	1156.967651	-453.890808	93.260811	1137.449707	-93.752480	88.857269	1099.026245	-394.448456	109.343681	1084.168701	-113.360054	-40.954647	1188.408081	-189.477417	-45.396652	1192.569336	-296.181366	17.619379	1023.338074	-59.306568	26.311005	1049.480713	-455.552887	80.815605	898.662598	-40.186481	125.719780	829.775818	-49.284245	169.233978	751.733154	-65.114342	172.498322	858.108276	-62.819992	200.012817	648.571411	-90.700150	139.881409	544.360535	-59.316502	114.779808	463.461151	-63.319786	79.640152	382.002167	-77.194603	159.865570	449.082031	-100.763000	28.723206	263.816437	-100.108582	0.000000	0.000000	-0.000000	0.000000	0.000000	-0.000000	0.000000	0.000000	-0.000000	0.000000	0.000000	-0.000000	0.000000	0.000000	-0.000000	0.000000	0.000000	-0.000000	0.000000	0.000000	-0.000000	0.000000	0.000000	-0.000000	0.000000	0.000000	-0.000000	0.000000	0.000000	-0.000000	0.000000	0.000000	-0.000000	0.000000	0.000000	-0.000000	0.000000	0.000000	-0.000000	0.000000	0.000000	-0.000000	0.000000	0.000000	-0.000000	137.415222	525.407166	-361.189362	0.000000	0.000000	-0.000000	0.000000	0.000000	-0.000000	0.000000	0.000000	-0.000000	-12.002627	84.740669	-453.702301	-20.274101	81.047844	-53.461380	
1	0.0050	494.063568	1327.643066	-125.501442	494.807434	1338.197021	-423.938385	0.000000	0.000000	-0.000000	0.000000	0.000000	-0.000000	575.711548	1065.934692	-30.501211	736.509094	861.414856	-67.776474	592.333679	1072.119019	-475.813995	0.000000	0.000000	-0.000000	-74.650604	1153.296631	-244.177673	125.601936	1157.049561	-453.928375	93.246742	1137.446655	-93.749352	88.859917	1099.038574	-394.441040	109.355301	1084.149292	-113.356552	-40.947659	1188.413818	-189.472397	-45.383026	1192.579834	-296.162720	17.619753	1023.327393	-59.317177	26.316811	1049.493774	-455.543701	80.818794	898.659790	-40.176270	125.740044	829.761047	-49.311150	169.241302	751.746277	-65.126541	172.489166	858.146606	-62.811859	200.019730	648.592712	-90.720657	139.888397	544.384277	-59.330040	114.789978	463.492737	-63.308353	79.641251	382.001068	-77.199692	159.864929	449.100403	-100.756195	28.745842	263.823181	-100.106346	0.000000	0.000000	-0.000000	0.000000	0.000000	-0.000000	0.000000	0.000000	-0.000000	0.000000	0.000000	-0.000000	0.000000	0.000000	-0.000000	0.000000	0.000000	-0.000000	0.000000	0.000000	-0.000000	0.000000	0.000000	-0.000000	0.000000	0.000000	-0.000000	0.000000	0.000000	-0.000000	0.000000	0.000000	-0.000000	0.000000	0.000000	-0.000000	0.000000	0.000000	-0.000000	0.000000	0.000000	-0.000000	0.000000	0.000000	-0.000000	137.420929	525.401062	-361.192810	0.000000	0.000000	-0.000000	0.000000	0.000000	-0.000000	0.000000	0.000000	-0.000000	-12.004143	84.741188	-453.713867	-20.262560	81.020699	-53.482464	
2	0.0100	494.068634	1327.625000	-125.484322	494.783020	1338.209595	-423.965149	0.000000	0.000000	-0.000000	0.000000	0.000000	-0.000000	575.695679	1065.927124	-30.502007	736.516418	861.425659	-67.767723	592.301086	1072.131104	-475.861115	0.000000	0.000000	-0.000000	-74.650200	1153.302979	-244.188339	125.608414	1157.095703	-454.014709	93.238937	1137.441772	-93.754524	88.864990	1099.062134	-394.436310	109.359726	1084.171509	-113.361519	-40.940163	1188.422363	-189.464462	-45.373707	1192.600098	-296.167572	17.609743	1023.331055	-59.299290	26.321810	1049.514404	-455.530853	80.815033	898.669373	-40.178745	125.752022	829.758240	-49.309917	169.226028	751.748779	-65.137657	172.493607	858.140930	-62.810368	200.037018	648.591858	-90.716522	139.898865	544.384277	-59.327591	114.785767	463.498413	-63.316624	79.645805	382.026520	-77.185936	159.859772	449.113800	-100.765953	28.731968	263.847595	-100.103065	0.000000	0.000000	-0.000000	0.000000	0.000000	-0.000000	0.000000	0.000000	-0.000000	0.000000	0.000000	-0.000000	0.000000	0.000000	-0.000000	0.000000	0.000000	-0.000000	0.000000	0.000000	-0.000000	0.000000	0.000000	-0.000000	0.000000	0.000000	-0.000000	0.000000	0.000000	-0.000000	0.000000	0.000000	-0.000000	0.000000	0.000000	-0.000000	0.000000	0.000000	-0.000000	0.000000	0.000000	-0.000000	0.000000	0.000000	-0.000000	137.423019	525.404480	-361.188904	0.000000	0.000000	-0.000000	0.000000	0.000000	-0.000000	0.000000	0.000000	-0.000000	-11.998593	84.752281	-453.727753	-20.262819	81.013802	-53.490845	
3	0.0150	494.098083	1327.620850	-125.477081	495.081757	1337.703125	-424.159668	0.000000	0.000000	-0.000000	0.000000	0.000000	-0.000000	575.436462	1065.918457	-30.230232	736.513794	861.409912	-67.779121	592.756897	1072.245117	-475.328674	0.000000	0.000000	-0.000000	-75.048561	1153.619629	-240.575928	125.616196	1157.138184	-454.095123	93.262291	1137.561279	-93.767418	88.848503	1099.055908	-394.447449	110.166977	1083.990967	-112.812454	-40.883743	1188.398804	-189.400238	-45.450764	1192.519165	-296.168579	17.561399	1023.204773	-59.272682	26.297596	1049.532104	-455.550110	80.905640	898.755432	-39.850670	125.733803	829.762146	-49.307209	169.230789	751.744324	-65.138695	172.478729	858.144958	-62.818409	199.955811	648.665771	-90.689827	139.886993	544.397156	-59.337353	114.796074	463.512573	-63.311562	79.643234	382.037201	-77.195229	159.859589	449.122681	-100.759109	28.634680	263.920013	-100.057678	0.000000	0.000000	-0.000000	0.000000	0.000000	-0.000000	0.000000	0.000000	-0.000000	0.000000	0.000000	-0.000000	0.000000	0.000000	-0.000000	0.000000	0.000000	-0.000000	0.000000	0.000000	-0.000000	0.000000	0.000000	-0.000000	0.000000	0.000000	-0.000000	0.000000	0.000000	-0.000000	0.000000	0.000000	-0.000000	0.000000	0.000000	-0.000000	0.000000	0.000000	-0.000000	0.000000	0.000000	-0.000000	0.000000	0.000000	-0.000000	137.427948	525.391357	-361.196136	0.000000	0.000000	-0.000000	0.000000	0.000000	-0.000000	0.000000	0.000000	-0.000000	-11.997829	84.757614	-453.723083	-20.245733	81.039780	-53.476456	
